<?xml version="1.0" encoding="UTF-8"?>
<svg id="Layer_1" data-name="Layer 1" xmlns="http://www.w3.org/2000/svg" viewBox="0 0 418.04 447.43">
  <defs>
    <style>
      .cls-1 {
        fill: #fff;
      }

      .cls-2 {
        fill: #d9e026;
      }
    </style>
  </defs>
  <path class="cls-1" d="m0,0h20.88v224.9H0V0Z"/>
  <path class="cls-1" d="m175.35,171.06l17.6,9.25c-5.77,11.33-12.44,20.48-20,27.44-7.56,6.96-16.07,12.26-25.53,15.88-9.46,3.63-20.15,5.44-32.1,5.44-26.47,0-47.17-8.67-62.1-26.02-14.93-17.35-22.39-36.96-22.39-58.84,0-20.58,6.32-38.92,18.96-55.03,16.02-20.48,37.47-30.72,64.34-30.72s49.76,10.49,66.28,31.47c11.74,14.82,17.71,33.31,17.91,55.48H52.31c.4,18.85,6.42,34.3,18.07,46.35,11.65,12.05,26.03,18.08,43.15,18.08,8.26,0,16.3-1.43,24.11-4.31,7.81-2.87,14.46-6.69,19.93-11.44s11.4-12.43,17.77-23.03Zm0-43.7c-2.79-11.13-6.84-20.03-12.17-26.7-5.33-6.66-12.37-12.03-21.13-16.11-8.76-4.08-17.97-6.11-27.62-6.11-15.93,0-29.62,5.12-41.06,15.36-8.36,7.46-14.69,18.64-18.96,33.56h120.95Z"/>
  <path class="cls-1" d="m240.77,62.64V2.39h-20.88v60.25h-28.49v18.04h28.49l-.11,142.85-.05-.11v32.34c-9.68-11.19-19.73-19.21-30.15-24.09-10.42-4.87-21.66-7.31-33.71-7.31-14.52,0-28.33,3.67-41.42,10.99-13.09,7.33-23.34,17.29-30.75,29.87-7.41,12.59-11.11,26.16-11.11,40.72s3.55,27.92,10.67,40.07c7.11,12.15,17.19,21.82,30.23,29,13.04,7.19,26.97,10.78,41.79,10.78,12.64,0,24.6-2.58,35.86-7.74,11.26-5.16,20.8-12.56,28.6-22.2v8.1c0,17.35-2.07,29.92-6.22,37.7-4.15,7.78-11.09,14.25-20.82,19.39-9.73,5.14-21.67,7.71-35.79,7.71s-26.33-2.51-36.02-7.52c-9.68-5.02-17.59-12.73-23.71-23.14h-22.5c5.82,12.38,12.19,21.78,19.1,28.22,6.91,6.43,15.86,11.56,26.87,15.38,11,3.82,23.41,5.73,37.23,5.73,18.85,0,34.98-3.91,48.41-11.72,13.42-7.81,22.85-18.95,28.27-33.42,3.95-10.22,5.92-26.37,5.92-48.46l.33-129.3h0V80.68s33.1,0,33.1,0v-18.04h-33.11Zm-38.55,287.29c-11.6,11.19-26.92,16.78-45.96,16.78s-34.2-5.64-46.04-16.92c-11.84-11.28-17.76-25.55-17.76-42.82,0-11.38,2.86-21.96,8.59-31.75,5.72-9.79,13.62-17.45,23.68-23,10.07-5.54,20.97-8.32,32.71-8.32s21.76,2.7,31.53,8.1c9.77,5.4,17.32,12.75,22.65,22.06,5.33,9.31,7.99,19.89,7.99,31.75,0,18.23-5.8,32.93-17.39,44.12Z"/>
  <path class="cls-1" d="m303.14,81.88l-11.48-6.56c3.78-7.55,6.31-13.47,7.61-17.75,1.29-4.27,2.24-9.79,2.83-16.55h-13.12V0h26.99v25.65c0,12.83-.87,22.89-2.61,30.2-1.74,7.31-5.14,15.98-10.22,26.02Z"/>
  <path class="cls-1" d="m403.92,80.39l-13.42,13.87c-11.17-10.84-22.08-16.26-32.75-16.26-6.78,0-12.59,2.24-17.42,6.71-4.83,4.47-7.25,9.69-7.25,15.66,0,5.27,1.99,10.29,5.98,15.06,3.98,4.87,12.36,10.59,25.11,17.15,15.54,8.05,26.1,15.81,31.68,23.27,5.48,7.56,8.22,16.06,8.22,25.5,0,13.33-4.68,24.61-14.04,33.85-9.36,9.25-21.06,13.87-35.1,13.87-9.36,0-18.3-2.04-26.81-6.11-8.51-4.08-15.56-9.69-21.13-16.85l13.12-14.91c10.66,12.03,21.97,18.05,33.93,18.05,8.37,0,15.49-2.68,21.38-8.05,5.88-5.37,8.82-11.68,8.82-18.94,0-5.97-1.94-11.28-5.83-15.96-3.89-4.57-12.66-10.34-26.3-17.3-14.65-7.55-24.61-15.01-29.89-22.37-5.28-7.36-7.92-15.76-7.92-25.21,0-12.33,4.21-22.57,12.62-30.72,8.42-8.15,19.05-12.23,31.89-12.23,14.94,0,29.98,7.31,45.11,21.92Z"/>
  <g>
    <path class="cls-1" d="m392.01,267.15c1.23-1.87,2.72-3.12,2.87-4.51.81-7.43.33-14.31-6.27-19.73-21.76-17.88-46.45-23.73-73.75-18.07-14.41,2.99-26.94,10.24-37.62,20.4-6.69,6.36-6.92,16.93-.55,21.24,14.41-18.97,32.77-30.12,57.47-29.98,24.55.14,43.11,10.92,57.84,30.66Z"/>
    <g>
      <path class="cls-2" d="m418.03,273.21c-.84,20.03-.13,40.33-6.99,59.57-2.64,7.4-6.07,14.03-10.28,19.95-8.74,12.35-20.82,21.57-35.9,28.02-10.71,4.58-21.8,6.67-33.11,6.64-16.51-.03-31.8-5.41-45.1-15.09-6.46-4.71-12.29-10-17.19-15.98-6.04-7.36-10.68-15.77-13.41-25.42-2.49-8.82-3.55-18.07-4.84-27.19-1.02-7.13-1.66-14.34-1.99-21.54-.31-6.62-.56-13.08,5.09-18.57,4.79-4.68,8.16-10.79,12.44-16.04,1.28-1.57,3.52-2.37,5.44-3.59-1.13,5.38-2.53,9.94-2.89,14.59-.2,2.53.88,5.51,2.25,7.75,2.99,4.84,8.43,4.29,11.19-.83.38-.71.51-1.73,1.09-2.13,1.56-1.06,3.23-2.23,5-2.53.53-.09,2.14,2.54,2.2,3.97.39,9.99-4.15,18.1-10.2,25.59-4,4.96-7.98,9.95-11.9,14.98-3.87,4.98-4.33,10.44-1.95,16.21,2.47,6.04,4.94,12.08,7.42,18.12,7.64,11.56,17.07,21.14,29.68,27.36,23.9,11.78,54.17,7.22,74.18-9.96,10.87-9.33,17.47-20.89,22.05-34.22,3.41-9.96-.39-17.15-6.53-24.17-7.2-8.22-14.57-16.38-16.72-27.64-.42-2.21-1-4.51-.76-6.68.15-1.34,1.71-3.58,2.62-3.58,1.75,0,4.42.89,5.06,2.2,1.72,3.55,3.1,7.64,7.84,6.35,4.45-1.2,6.8-4.95,6.27-9.8-.53-4.89-1.33-9.76-2.09-15.16,2.23,1.48,5.18,2.65,7,4.78,4.8,5.59,9.27,11.47,13.5,17.5,1.2,1.72,1.62,4.36,1.53,6.54Z"/>
      <path class="cls-1" d="m400.76,355.73l-63.37,91.56-68-88,.07.03c4.9,5.98,10.73,11.27,17.19,15.98,13.3,9.68,28.59,15.06,45.1,15.09,11.31.03,22.4-2.06,33.11-6.64,15.08-6.45,27.16-15.67,35.9-28.02Z"/>
      <path class="cls-1" d="m390.96,300.13c-1.41-1.78-4.17-3.06-6.49-3.44-6.27-1.03-12.65-1.34-18.96-2.15-7.19-.91-14.08-2.11-20.22-6.95-5.54-4.36-12.46-4.17-19.14-1.84-3.68,2.01-7.35,4.02-11.03,6.02l-1.98.92c-5.67.68-11.34,1.36-17.02,2.04-4.03.3-8.11.33-12.08,1-2.19.37-4.79,1.27-6.16,2.85-2.95,3.38-5.35,7.27-7.7,11.11-.78,1.28-.74,3.06-1.38,6.04,6.54-5.17,12.61-7.22,19.33-7.33,5.01.66,10.01,1.32,15.02,1.98,1.42.71,2.89,1.35,4.26,2.14,11.85,6.85,18.56,16.63,18.85,30.79.19,9.13-2.31,17.03-8.5,24.76,11,2.11,21.05,2.37,31.43-.18-12.5-18.74-9.63-35.07,1.29-48.08,5.3-6.31,12.53-10.11,20.56-11.04,9.31-1.07,18.55.16,26.87,6.21,1.07-7-3.65-10.73-6.94-14.88Zm-57.56,16.16c-6.08,0-11-4.92-11-11s4.92-11,11-11,11,4.92,11,11-4.92,11-11,11Z"/>
    </g>
  </g>
</svg>